<svg xmlns="http://www.w3.org/2000/svg" viewBox="0 0 1440 900" width="1440" height="900">
<defs>
<marker id="arrow" markerWidth="10" markerHeight="10" refX="8" refY="3" orient="auto" markerUnits="strokeWidth">
<path d="M0,0 L0,6 L9,3 z" fill="#7c3aed" />
</marker>
</defs>
<rect x="0" y="0" width="1440" height="900" fill="#ffffff" stroke="#cbd5e1" />
<line x1="85" y1="130" x2="390" y2="130" stroke="#2563eb" stroke-width="3" stroke-dasharray="5 5" opacity="0.72" />
<text x="243.5" y="124" font-family="Arial, sans-serif" font-size="13" fill="#2563eb">label_for</text>
<line x1="390" y1="130" x2="1110" y2="642" stroke="#9333ea" stroke-width="3" stroke-dasharray="0" opacity="0.72" />
<text x="756" y="380" font-family="Arial, sans-serif" font-size="13" fill="#9333ea">related</text>
<line x1="180" y1="238" x2="1110" y2="642" stroke="#9333ea" stroke-width="3" stroke-dasharray="0" opacity="0.72" />
<text x="651" y="434" font-family="Arial, sans-serif" font-size="13" fill="#9333ea">related</text>
<line x1="308" y1="690" x2="1194" y2="150" stroke="#dc2626" stroke-width="3" stroke-dasharray="0" opacity="0.72" />
<text x="757" y="414" font-family="Arial, sans-serif" font-size="13" fill="#dc2626">evidence_to_action</text>
<line x1="1110" y1="642" x2="1194" y2="150" stroke="#dc2626" stroke-width="3" stroke-dasharray="0" opacity="0.72" />
<text x="1158" y="390" font-family="Arial, sans-serif" font-size="13" fill="#dc2626">evidence_to_action</text>
<polyline points="390,130 180,238 308,690 1110,642 1194,150" fill="none" stroke="#7c3aed" stroke-width="4" stroke-linecap="round" stroke-linejoin="round" marker-end="url(#arrow)" opacity="0.85" />
<rect x="40" y="118" width="90" height="24" rx="4" fill="#dbeafe" stroke="#2563eb" stroke-width="2" opacity="0.86" />
<text x="46" y="110" font-family="Arial, sans-serif" font-size="13" fill="#2563eb">po_label (label)</text>
<text x="48" y="135" font-family="Arial, sans-serif" font-size="12" fill="#111827">PO Number</text>
<rect x="280" y="112" width="220" height="36" rx="4" fill="#dcfce7" stroke="#16a34a" stroke-width="2" opacity="0.86" />
<text x="286" y="104" font-family="Arial, sans-serif" font-size="13" fill="#16a34a">po_number (field)</text>
<text x="288" y="134" font-family="Arial, sans-serif" font-size="12" fill="#111827">PO Number</text>
<rect x="40" y="220" width="280" height="36" rx="4" fill="#dcfce7" stroke="#16a34a" stroke-width="2" opacity="0.86" />
<text x="46" y="212" font-family="Arial, sans-serif" font-size="13" fill="#16a34a">customer_account (field)</text>
<text x="48" y="242" font-family="Arial, sans-serif" font-size="12" fill="#111827">Customer Account</text>
<rect x="48" y="560" width="520" height="260" rx="4" fill="#fef3c7" stroke="#d97706" stroke-width="2" opacity="0.86" />
<text x="54" y="552" font-family="Arial, sans-serif" font-size="13" fill="#d97706">line_exceptions (evidence)</text>
<text x="56" y="582" font-family="Arial, sans-serif" font-size="12" fill="#111827">Line Exceptions</text>
<rect x="960" y="610" width="300" height="64" rx="4" fill="#fee2e2" stroke="#dc2626" stroke-width="2" opacity="0.86" />
<text x="966" y="602" font-family="Arial, sans-serif" font-size="13" fill="#dc2626">duplicate_warning (warning)</text>
<text x="968" y="632" font-family="Arial, sans-serif" font-size="12" fill="#111827">Possible Duplicate PO</text>
<rect x="1130" y="128" width="128" height="44" rx="4" fill="#ede9fe" stroke="#7c3aed" stroke-width="2" opacity="0.86" />
<text x="1136" y="120" font-family="Arial, sans-serif" font-size="13" fill="#7c3aed">accept_action (button)</text>
<text x="1138" y="150" font-family="Arial, sans-serif" font-size="12" fill="#111827">Accept PO</text>
<rect x="990" y="128" width="128" height="44" rx="4" fill="#ede9fe" stroke="#7c3aed" stroke-width="2" opacity="0.86" />
<text x="996" y="120" font-family="Arial, sans-serif" font-size="13" fill="#7c3aed">repair_action (button)</text>
<text x="998" y="150" font-family="Arial, sans-serif" font-size="12" fill="#111827">Request Repair</text>
</svg>
